<svg xmlns="http://www.w3.org/2000/svg" viewBox="0 0 500 500"><g id="freepik--background-complete--inject-194"><rect x="416.78" y="398.49" width="33.12" height="0.25" style="fill:#ebebeb"></rect><rect x="322.53" y="401.21" width="8.69" height="0.25" style="fill:#ebebeb"></rect><rect x="396.59" y="389.21" width="19.19" height="0.25" style="fill:#ebebeb"></rect><rect x="52.46" y="390.89" width="43.19" height="0.25" style="fill:#ebebeb"></rect><rect x="104.56" y="390.89" width="6.33" height="0.25" style="fill:#ebebeb"></rect><rect x="131.47" y="395.11" width="93.68" height="0.25" style="fill:#ebebeb"></rect><path d="M238.4,337.8H45.3a5.71,5.71,0,0,1-5.71-5.71V60.66A5.71,5.71,0,0,1,45.3,55H238.4a5.71,5.71,0,0,1,5.71,5.71V332.09A5.71,5.71,0,0,1,238.4,337.8ZM45.3,55.2a5.47,5.47,0,0,0-5.46,5.46V332.09a5.47,5.47,0,0,0,5.46,5.46H238.4a5.47,5.47,0,0,0,5.46-5.46V60.66a5.47,5.47,0,0,0-5.46-5.46Z" style="fill:#ebebeb"></path><path d="M454.7,337.8H261.6a5.71,5.71,0,0,1-5.71-5.71V60.66A5.71,5.71,0,0,1,261.6,55H454.7a5.71,5.71,0,0,1,5.71,5.71V332.09A5.71,5.71,0,0,1,454.7,337.8ZM261.6,55.2a5.47,5.47,0,0,0-5.46,5.46V332.09a5.47,5.47,0,0,0,5.46,5.46H454.7a5.47,5.47,0,0,0,5.46-5.46V60.66a5.47,5.47,0,0,0-5.46-5.46Z" style="fill:#ebebeb"></path><rect y="382.4" width="500" height="0.25" style="fill:#ebebeb"></rect><path d="M94.36,257.13l-15.29-4.72a1,1,0,0,1,.35-1.94L97,251.4c-4.16-7.23-6.61-11.75-9.42-17.41a1,1,0,0,1,1.64-1.1c3.76,4.23,6.9,7.66,11.94,13.07,1.21-7,2.6-13.45,4.35-19.92a1,1,0,0,1,1.95.34,137.88,137.88,0,0,0-.51,15.68l.48.17q6.35-7.24,13.3-13.91a1,1,0,0,1,1.46,1.34,184.83,184.83,0,0,0-12.44,17.85q9.07-3.42,18.23-6.63a1,1,0,0,1,.82,1.8c-6.33,3.59-12.59,7.26-18.84,11.06l16.11,5.13a1,1,0,0,1-.36,1.94l-16.56-1c3.28,3.83,5.55,6.46,8.19,9.43a1,1,0,0,1-1.29,1.49c-3.32-2.21-6.25-4.17-10.51-7,.43,3.4.81,6,1.26,8.62a1,1,0,0,1-1.91.53c-1.1-2.83-2.11-5.64-3.4-9.38-4.81,23-3.56,45.33,1.09,68.21l-5.76-1a179,179,0,0,1,2.7-67.52c-2.89,3-5,5.23-7,7.49a1,1,0,0,1-1.59-1.17c1.36-2.26,2.84-4.55,4.81-7.52-5.14,1.13-8.67,1.91-12.55,2.79a1,1,0,0,1-.66-1.86C86.14,261.05,89.46,259.45,94.36,257.13Z" style="fill:#ebebeb"></path><path d="M86.22,265.08,98,258.86a1.33,1.33,0,0,0-.94-2.47L82.53,260c2.36-6.8,3.85-11.38,5.3-16.42a1.33,1.33,0,0,0-2.41-1.05c-2.39,4-4.66,7.6-8,12.91C75.39,250,73.31,244.94,71,240a1.32,1.32,0,0,0-2.48.89c1,3.92,1.82,7.87,2.46,11.74l-.44.26q-5.68-4.44-11.66-8.51a1.33,1.33,0,0,0-1.65,2.07q6.29,5.75,12,12.06-7.69-1.33-15.44-2.54a1.33,1.33,0,0,0-.63,2.57q8.53,2.94,17,6.13l-12.48,6.76a1.33,1.33,0,0,0,1,2.46l13.46-3.41c-2,3.41-3.44,6-5,8.58a1.33,1.33,0,0,0,2.07,1.63c2.17-2.12,4.32-4.25,7.17-7.06.13,2,.22,3.78.29,5.42a1.33,1.33,0,0,0,2.64.17c.33-2,.65-4.08,1-6.57,9,21.71,12,43.86,11.66,67.21l5.47-2.1a179.14,179.14,0,0,0-15.26-65.83c2.07,1.46,3.81,2.7,5.4,3.87a1.33,1.33,0,0,0,1.76-2c-1.08-1.15-2.26-2.37-3.63-3.77,4,.11,7.06.2,10,.3a1.33,1.33,0,0,0,.4-2.61C93.26,266.93,90.23,266.12,86.22,265.08Z" style="fill:#f0f0f0"></path><path d="M107,277.7l-8.75-4.65a.94.94,0,0,1,.66-1.74L109.65,274c-1.75-5.06-2.85-8.42-3.93-12.18a.94.94,0,0,1,1.71-.74c1.78,2.94,3.45,5.64,5.94,9.59,1.52-4.05,3.07-7.8,4.78-11.49a.94.94,0,0,1,1.76.63c-.76,3-1.4,6-1.88,8.91l.28.16q4.34-3.37,8.87-6.45a.94.94,0,0,1,1.16,1.48q-4.73,4.29-9,9,5.77-1,11.56-1.91a.94.94,0,0,1,.45,1.82c-4.25,1.47-8.47,3-12.71,4.58l9.3,5a.94.94,0,0,1-.68,1.74l-10-2.54c1.47,2.57,2.58,4.49,3.73,6.44a.94.94,0,0,1-1.47,1.15l-5.38-5.29c-.1,1.59-.17,2.95-.21,4.22a.94.94,0,0,1-1.87.12c-.26-1.51-.51-3.13-.79-5.06-6.57,15.83-8.71,32-8.5,49l-4-1.53a130.59,130.59,0,0,1,11.12-48c-1.62,1.14-3,2.1-4.19,3a.94.94,0,0,1-1.24-1.4c.84-.9,1.77-1.86,2.86-3l-7.56.22a.94.94,0,0,1-.28-1.85C101.67,279.08,103.93,278.48,107,277.7Z" style="fill:#f5f5f5"></path><path d="M82.26,382.23h29.83a4,4,0,0,0,3.94-3.7l3.16-51.44c.14-2.27-44.16-2.27-44,0l3.16,51.44A3.93,3.93,0,0,0,82.26,382.23Z" style="fill:#f0f0f0"></path><path d="M80.45,263.38a3,3,0,0,1-1.07-2.67l.67-5.7-1.53,2.65a3,3,0,0,1-4.42.9l-3-2.26,2.74,4.41a3,3,0,0,1-.6,3.88l-3.54,3,3.47-.79a3,3,0,0,1,3.53,2l1.2,3.64.76-3.87a3,3,0,0,1,3.81-2.31l2.32.68Z" style="fill:#e6e6e6"></path><path d="M100.35,253.56a2.2,2.2,0,0,0,.78-1.95l-.49-4.17,1.12,1.94A2.19,2.19,0,0,0,105,250l2.18-1.65-2,3.22a2.19,2.19,0,0,0,.44,2.83l2.58,2.22-2.53-.58a2.2,2.2,0,0,0-2.58,1.46l-.88,2.66-.55-2.83a2.21,2.21,0,0,0-2.78-1.69l-1.7.5Z" style="fill:#f5f5f5"></path><path d="M112.13,277.43a1.59,1.59,0,0,0,.57-1.41l-.35-3,.8,1.39a1.58,1.58,0,0,0,2.32.47l1.56-1.19L115.6,276a1.58,1.58,0,0,0,.32,2l1.85,1.59-1.82-.42a1.58,1.58,0,0,0-1.85,1l-.62,1.91-.4-2a1.59,1.59,0,0,0-2-1.21l-1.22.36Z" style="fill:#e6e6e6"></path><rect x="357.15" y="135.66" width="28.81" height="7.73" rx="1.32" style="fill:#f5f5f5"></rect><rect x="348.35" y="145.24" width="28.81" height="7.73" rx="1.32" style="fill:#f5f5f5"></rect><rect x="378.5" y="145.24" width="28.81" height="7.73" rx="1.32" style="fill:#f0f0f0"></rect><rect x="92.13" y="189" width="30.56" height="8.2" rx="1.32" style="fill:#f5f5f5"></rect><rect x="92.13" y="209.35" width="30.56" height="8.2" rx="1.32" style="fill:#f5f5f5"></rect><rect x="82.8" y="199.17" width="30.56" height="8.2" rx="1.32" style="fill:#f5f5f5"></rect><rect x="114.78" y="199.17" width="30.56" height="8.2" rx="1.32" style="fill:#f0f0f0"></rect><rect x="379.12" y="200.94" width="31.55" height="8.47" rx="1.32" transform="translate(789.79 410.35) rotate(180)" style="fill:#f5f5f5"></rect><rect x="388.75" y="190.45" width="31.55" height="8.47" rx="1.32" transform="translate(809.06 389.37) rotate(180)" style="fill:#f5f5f5"></rect><rect x="355.73" y="190.45" width="31.55" height="8.47" rx="1.32" transform="translate(743.01 389.37) rotate(180)" style="fill:#f0f0f0"></rect><rect x="81.45" y="158.64" width="33.2" height="8.91" rx="1.32" transform="translate(196.1 326.19) rotate(180)" style="fill:#f5f5f5"></rect><rect x="96.96" y="147.6" width="33.2" height="8.91" rx="1.32" transform="translate(227.11 304.11) rotate(180)" style="fill:#f5f5f5"></rect><rect x="62.21" y="147.6" width="33.2" height="8.91" rx="1.32" transform="translate(157.62 304.11) rotate(180)" style="fill:#f0f0f0"></rect><rect x="144.65" y="61.72" width="1.35" height="40.02" style="fill:#e6e6e6"></rect><polygon points="102.56 123.97 145.32 98.13 188.09 123.97 102.56 123.97" style="fill:#f0f0f0"></polygon><polygon points="148.28 123.97 145.32 98.13 164.55 123.97 148.28 123.97" style="fill:#f5f5f5"></polygon><rect x="354" y="61.72" width="1.35" height="40.02" style="fill:#e6e6e6"></rect><polygon points="311.92 123.97 354.68 98.13 397.44 123.97 311.92 123.97" style="fill:#f0f0f0"></polygon><polygon points="357.63 123.97 354.68 98.13 373.9 123.97 357.63 123.97" style="fill:#f5f5f5"></polygon></g><g id="freepik--Shadow--inject-194"><ellipse id="freepik--path--inject-194" cx="250" cy="412.39" rx="193.89" ry="11.32" style="fill:#f5f5f5"></ellipse></g><g id="freepik--Plant--inject-194"><path d="M159.1,372.05a20.5,20.5,0,0,1,6.34,4.95,14,14,0,0,0-6.38.3l7.74,1a7.27,7.27,0,0,0-4.43,2.29,13.38,13.38,0,0,1,6.47-.3,8.8,8.8,0,0,0,2.37.33,2.05,2.05,0,0,0,1.86-1.29,2.52,2.52,0,0,0-.43-1.88C169.94,372.89,163.94,372.18,159.1,372.05Z" style="fill:#407BFF"></path><path d="M159.1,372.05a20.5,20.5,0,0,1,6.34,4.95,14,14,0,0,0-6.38.3l7.74,1a7.27,7.27,0,0,0-4.43,2.29,13.38,13.38,0,0,1,6.47-.3,8.8,8.8,0,0,0,2.37.33,2.05,2.05,0,0,0,1.86-1.29,2.52,2.52,0,0,0-.43-1.88C169.94,372.89,163.94,372.18,159.1,372.05Z" style="fill:#fff;opacity:0.7000000000000001"></path><path d="M198.64,373a23.32,23.32,0,0,1-6.42,4.19,17.48,17.48,0,0,1,7.37.45,15.06,15.06,0,0,1-6.6,1.09,10.7,10.7,0,0,1,4,1.77l-9,.86a3.11,3.11,0,0,1,.24-2.61C189.94,375.81,195.59,373.87,198.64,373Z" style="fill:#407BFF"></path><path d="M198.64,373a23.32,23.32,0,0,1-6.42,4.19,17.48,17.48,0,0,1,7.37.45,15.06,15.06,0,0,1-6.6,1.09,10.7,10.7,0,0,1,4,1.77l-9,.86a3.11,3.11,0,0,1,.24-2.61C189.94,375.81,195.59,373.87,198.64,373Z" style="fill:#fff;opacity:0.7000000000000001"></path><path d="M212.5,371.66a20.47,20.47,0,0,1,6.34,4.94,14.05,14.05,0,0,0-6.38.31l7.74,1a7.26,7.26,0,0,0-4.43,2.28,13.26,13.26,0,0,1,6.47-.29,8.41,8.41,0,0,0,2.37.32,2,2,0,0,0,1.86-1.28,2.55,2.55,0,0,0-.43-1.89C223.34,372.49,217.34,371.79,212.5,371.66Z" style="fill:#407BFF"></path><path d="M212.5,371.66a20.47,20.47,0,0,1,6.34,4.94,14.05,14.05,0,0,0-6.38.31l7.74,1a7.26,7.26,0,0,0-4.43,2.28,13.26,13.26,0,0,1,6.47-.29,8.41,8.41,0,0,0,2.37.32,2,2,0,0,0,1.86-1.28,2.55,2.55,0,0,0-.43-1.89C223.34,372.49,217.34,371.79,212.5,371.66Z" style="fill:#fff;opacity:0.2"></path><path d="M252,372.6a23.51,23.51,0,0,1-6.42,4.18,17.48,17.48,0,0,1,7.37.46,15.05,15.05,0,0,1-6.6,1.08,10.86,10.86,0,0,1,4,1.77l-9,.87a3.11,3.11,0,0,1,.24-2.61C243.34,375.41,249,373.47,252,372.6Z" style="fill:#407BFF"></path><path d="M252,372.6a23.51,23.51,0,0,1-6.42,4.18,17.48,17.48,0,0,1,7.37.46,15.05,15.05,0,0,1-6.6,1.08,10.86,10.86,0,0,1,4,1.77l-9,.87a3.11,3.11,0,0,1,.24-2.61C243.34,375.41,249,373.47,252,372.6Z" style="fill:#fff;opacity:0.2"></path><path d="M226.29,357.43c-1.76-8.35-8.48-13.41-15.32-18.5,4.16,7.13,9.06,13.67,11.25,21.64A38.62,38.62,0,0,0,211,350s6.32,12.27,8.74,14.65a31.92,31.92,0,0,0-18.52-9.43c13.25,8.79,18,17,19.78,21.92a6,6,0,0,0,5.67,3.88l14-.09a6.06,6.06,0,0,0,5.6-4c2.45-6.61,6.72-12.29,13.07-15.54-5.33,1.49-9.82,2.57-13,7.09,2-6.6,5.39-10.42,11.69-13.21-5.85,1-11.64,3.12-14,8.55a21.18,21.18,0,0,1,8.72-15.57c-5,.76-9.84,4.33-10.8,9.32-.17-6.64.54-13.34,4.17-18.9A20.84,20.84,0,0,0,237,353c-1.56-5.73-2.34-14.09-9-21.58a46.76,46.76,0,0,1,2.35,20.21c-.57-3.49-5.8-12.35-10.79-15.58C219.52,336.07,226.81,349.06,226.29,357.43Z" style="fill:#407BFF"></path><g style="opacity:0.6000000000000001"><path d="M226.29,357.43c-1.76-8.35-8.48-13.41-15.32-18.5,4.16,7.13,9.06,13.67,11.25,21.64A38.62,38.62,0,0,0,211,350s6.32,12.27,8.74,14.65a31.92,31.92,0,0,0-18.52-9.43c13.25,8.79,18,17,19.78,21.92a6,6,0,0,0,5.67,3.88l14-.09a6.06,6.06,0,0,0,5.6-4c2.45-6.61,6.72-12.29,13.07-15.54-5.33,1.49-9.82,2.57-13,7.09,2-6.6,5.39-10.42,11.69-13.21-5.85,1-11.64,3.12-14,8.55a21.18,21.18,0,0,1,8.72-15.57c-5,.76-9.84,4.33-10.8,9.32-.17-6.64.54-13.34,4.17-18.9A20.84,20.84,0,0,0,237,353c-1.56-5.73-2.34-14.09-9-21.58a46.76,46.76,0,0,1,2.35,20.21c-.57-3.49-5.8-12.35-10.79-15.58C219.52,336.07,226.81,349.06,226.29,357.43Z" style="fill:#fff;opacity:0.7000000000000001"></path></g><path d="M200.29,357.43c-1.75-8.35-8.47-13.41-15.31-18.5,4.16,7.13,9.06,13.67,11.25,21.64A38.62,38.62,0,0,0,185,350s6.32,12.27,8.74,14.65a31.92,31.92,0,0,0-18.52-9.43c13.25,8.79,18,17,19.78,21.92a6,6,0,0,0,5.67,3.88l14-.09a6.06,6.06,0,0,0,5.61-4c2.45-6.61,6.72-12.29,13.07-15.54-5.34,1.49-9.83,2.57-13,7.09,2-6.6,5.38-10.42,11.69-13.21-5.85,1-11.64,3.12-14,8.55a21.18,21.18,0,0,1,8.72-15.57c-5,.76-9.84,4.33-10.8,9.32-.17-6.64.54-13.34,4.17-18.9A20.84,20.84,0,0,0,211,353c-1.57-5.73-2.34-14.09-9-21.58a46.68,46.68,0,0,1,2.36,20.21c-.57-3.49-5.8-12.35-10.79-15.58C193.53,336.07,200.82,349.06,200.29,357.43Z" style="fill:#407BFF"></path><path d="M186.51,371.66a20.47,20.47,0,0,1,6.34,4.94,14.05,14.05,0,0,0-6.38.31l7.74,1a7.23,7.23,0,0,0-4.43,2.28,13.26,13.26,0,0,1,6.47-.29,8.36,8.36,0,0,0,2.37.32,2,2,0,0,0,1.85-1.28,2.5,2.5,0,0,0-.42-1.89C197.35,372.49,191.34,371.79,186.51,371.66Z" style="fill:#407BFF"></path><path d="M226.05,372.6a23.72,23.72,0,0,1-6.43,4.18,17.52,17.52,0,0,1,7.38.46,15.05,15.05,0,0,1-6.6,1.08,10.86,10.86,0,0,1,4,1.77l-9,.87a3.11,3.11,0,0,1,.24-2.61C217.35,375.41,223,373.47,226.05,372.6Z" style="fill:#407BFF"></path><g style="opacity:0.6000000000000001"><path d="M200.29,357.43c-1.75-8.35-8.47-13.41-15.31-18.5,4.16,7.13,9.06,13.67,11.25,21.64A38.62,38.62,0,0,0,185,350s6.32,12.27,8.74,14.65a31.92,31.92,0,0,0-18.52-9.43c13.25,8.79,18,17,19.78,21.92a6,6,0,0,0,5.67,3.88l14-.09a6.06,6.06,0,0,0,5.61-4c2.45-6.61,6.72-12.29,13.07-15.54-5.34,1.49-9.83,2.57-13,7.09,2-6.6,5.38-10.42,11.69-13.21-5.85,1-11.64,3.12-14,8.55a21.18,21.18,0,0,1,8.72-15.57c-5,.76-9.84,4.33-10.8,9.32-.17-6.64.54-13.34,4.17-18.9A20.84,20.84,0,0,0,211,353c-1.57-5.73-2.34-14.09-9-21.58a46.68,46.68,0,0,1,2.36,20.21c-.57-3.49-5.8-12.35-10.79-15.58C193.53,336.07,200.82,349.06,200.29,357.43Z" style="fill:#fff"></path><path d="M186.51,371.66a20.47,20.47,0,0,1,6.34,4.94,14.05,14.05,0,0,0-6.38.31l7.74,1a7.23,7.23,0,0,0-4.43,2.28,13.26,13.26,0,0,1,6.47-.29,8.36,8.36,0,0,0,2.37.32,2,2,0,0,0,1.85-1.28,2.5,2.5,0,0,0-.42-1.89C197.35,372.49,191.34,371.79,186.51,371.66Z" style="fill:#fff"></path><path d="M226.05,372.6a23.72,23.72,0,0,1-6.43,4.18,17.52,17.52,0,0,1,7.38.46,15.05,15.05,0,0,1-6.6,1.08,10.86,10.86,0,0,1,4,1.77l-9,.87a3.11,3.11,0,0,1,.24-2.61C217.35,375.41,223,373.47,226.05,372.6Z" style="fill:#fff"></path></g><path d="M172.89,357.82c-1.76-8.34-8.48-13.41-15.32-18.5,4.16,7.14,9.06,13.68,11.25,21.64a38.75,38.75,0,0,0-11.26-10.53s6.32,12.28,8.74,14.66a32,32,0,0,0-18.52-9.44c13.25,8.8,18,17,19.78,21.93a6,6,0,0,0,5.67,3.88l14-.1a6,6,0,0,0,5.6-4c2.45-6.61,6.72-12.28,13.07-15.54-5.33,1.49-9.82,2.58-13,7.1,2-6.6,5.39-10.43,11.69-13.21-5.85.94-11.64,3.12-14,8.55a21.17,21.17,0,0,1,8.72-15.57c-5,.75-9.84,4.33-10.8,9.31-.17-6.64.54-13.33,4.17-18.9a20.86,20.86,0,0,0-9.09,14.28c-1.56-5.72-2.34-14.09-9-21.58A46.76,46.76,0,0,1,176.91,352c-.57-3.48-5.8-12.35-10.79-15.58C166.12,336.46,173.41,349.45,172.89,357.82Z" style="fill:#407BFF"></path><g style="opacity:0.8"><path d="M172.89,357.82c-1.76-8.34-8.48-13.41-15.32-18.5,4.16,7.14,9.06,13.68,11.25,21.64a38.75,38.75,0,0,0-11.26-10.53s6.32,12.28,8.74,14.66a32,32,0,0,0-18.52-9.44c13.25,8.8,18,17,19.78,21.93a6,6,0,0,0,5.67,3.88l14-.1a6,6,0,0,0,5.6-4c2.45-6.61,6.72-12.28,13.07-15.54-5.33,1.49-9.82,2.58-13,7.1,2-6.6,5.39-10.43,11.69-13.21-5.85.94-11.64,3.12-14,8.55a21.17,21.17,0,0,1,8.72-15.57c-5,.75-9.84,4.33-10.8,9.31-.17-6.64.54-13.33,4.17-18.9a20.86,20.86,0,0,0-9.09,14.28c-1.56-5.72-2.34-14.09-9-21.58A46.76,46.76,0,0,1,176.91,352c-.57-3.48-5.8-12.35-10.79-15.58C166.12,336.46,173.41,349.45,172.89,357.82Z" style="fill:#fff;opacity:0.7000000000000001"></path></g><rect x="159.06" y="380.26" width="93.93" height="6.88" style="fill:#407BFF"></rect><path d="M249.6,387.14V402.6a6.46,6.46,0,0,1-6.46,6.45H169.92a6.46,6.46,0,0,1-6.46-6.45V387.14Z" style="fill:#407BFF"></path><path d="M249.6,387.14l-78.31,5.32v16.59h-1.37a6.46,6.46,0,0,1-6.46-6.45V387.14Z" style="opacity:0.2;isolation:isolate"></path><rect x="159.06" y="380.26" width="10.03" height="6.88" style="opacity:0.2;isolation:isolate"></rect></g><g id="freepik--Anuncio--inject-194"><rect x="249.01" y="181.06" width="175.49" height="228.09" rx="11.64" style="fill:#407BFF"></rect><rect x="235.62" y="181.06" width="182.5" height="228.09" rx="11.64" style="fill:#407BFF"></rect><path d="M418,192.69V397.51a11.64,11.64,0,0,1-11.64,11.63H247.09a11.64,11.64,0,0,1-11.64-11.63V192.69a11.64,11.64,0,0,1,11.64-11.63H406.31A11.64,11.64,0,0,1,418,192.69Z" style="fill:#fff;opacity:0.6000000000000001"></path><rect x="247.26" y="409.14" width="18.52" height="5.07" style="fill:#263238"></rect><rect x="388.18" y="409.14" width="18.52" height="5.07" style="fill:#263238"></rect><polygon points="238.16 282.07 238.16 315.43 291.86 354.28 306.21 351.85 238.16 282.07" style="fill:#fff;opacity:0.4;isolation:isolate"></polygon><path d="M324.76,346.52H308.15L238.72,209.24V195c0-6.26,4.1-11.33,10.36-11.33h11.4Z" style="fill:#fff;opacity:0.4;isolation:isolate"></path><polygon points="346.3 183.41 334.19 343.48 319.9 343.48 307.79 183.41 327.05 183.59 346.3 183.41" style="fill:#fff;opacity:0.4;isolation:isolate"></polygon><polygon points="415.46 282.07 415.46 315.43 361.76 354.28 347.41 351.85 415.46 282.07" style="fill:#fff;opacity:0.4;isolation:isolate"></polygon><path d="M328.86,346.52h16.61L414.9,209.24V195c0-6.26-4.1-11.33-10.36-11.33h-11.4Z" style="fill:#fff;opacity:0.4;isolation:isolate"></path><path d="M416.35,351.83v43.69a11.43,11.43,0,0,1-11.43,11.42H248.55a11.43,11.43,0,0,1-11.43-11.42V375.41l.31-23.58Z" style="fill:#fff;opacity:0.6000000000000001"></path></g><g id="freepik--Food--inject-194"><path d="M404.78,377.84H249c-8.22,0-9.84-6.31-4.32-13.2l4.16-5.18c4.4-5.49,12.68-9.51,18.92-9.51H386c6.24,0,14.52,4,18.92,9.51l4.16,5.18C414.62,371.53,413,377.84,404.78,377.84Z" style="fill:#263238"></path><path d="M250,363.89,385.54,352l-115,1.37c-10.65.3-15.69,5-20.46,10.52Z" style="fill:#fff;opacity:0.2"></path><polygon points="318.95 343.73 295.2 351.28 269.5 288.08 303.45 277.29 318.95 343.73" style="fill:#407BFF"></polygon><polygon points="318.95 343.73 295.2 351.28 269.5 288.08 303.45 277.29 318.95 343.73" style="fill:#fff;opacity:0.7000000000000001;isolation:isolate"></polygon><path d="M278.55,312.26l6.72,16.53L314,319.64,310,302.26Zm20.23,9.16c-3.28,1-6.75-.48-7.76-3.46s.88-6.41,4.28-7.49,6.92.56,7.83,3.64S302.08,320.37,298.78,321.42Z" style="fill:#407BFF"></path><path d="M278.55,312.26l6.72,16.53L314,319.64,310,302.26Zm20.23,9.16c-3.28,1-6.75-.48-7.76-3.46s.88-6.41,4.28-7.49,6.92.56,7.83,3.64S302.08,320.37,298.78,321.42Z" style="opacity:0.2"></path><polygon points="305.47 279.53 269.6 290.94 268.38 284.95 303.01 273.94 305.47 279.53" style="fill:#407BFF"></polygon><path d="M332.65,273.84l-2.65.48-1.85-10.19-.51-2.79-.06-.36-.55-3-2-11.22-.2-1.06-.82-4.38a3,3,0,0,0-3-2.45l-6.14,0,0-2.53,8.43-.06a3,3,0,0,1,3,2.34l0,.13.88,4.69,1.09,5.92,1.55,8.59.53,3,.07.36.51,2.79Z" style="fill:#fff"></path><polygon points="341.83 337.3 313.97 337.32 308.27 269.13 347.41 269.1 341.83 337.3" style="fill:#407BFF"></polygon><polygon points="341.83 337.3 313.97 337.32 308.27 269.13 347.41 269.1 341.83 337.3" style="fill:#fff;opacity:0.7000000000000001;isolation:isolate"></polygon><path d="M346.81,268.73l-38,0a18.35,18.35,0,0,1,.3-3,19,19,0,0,1,12.26-14.52h13a19,19,0,0,1,12.17,14.5A19.54,19.54,0,0,1,346.81,268.73Z" style="fill:#fff;opacity:0.6000000000000001;isolation:isolate"></path><polygon points="306.49 265.78 349.18 265.75 348.46 271.89 307.23 271.92 306.49 265.78" style="fill:#407BFF"></polygon><path d="M309.25,295.08l1.42,17.79,34.77,0,1.39-17.79Zm18.8,14.77c-3.44,0-6.29-2.5-6.36-5.64s2.78-5.85,6.35-5.85,6.42,2.63,6.36,5.84S331.5,309.84,328.05,309.85Z" style="fill:#407BFF"></path><path d="M346.73,313.81l4.88-29,4.1-.41-.95,5.6,3.58.57,3.79-14.66,4.42.92-1.32,6.26,3,1.33,0,3.63,2.6.94,3.77-8.61,2.7,1.18,1.77-4,4.05,1.77L379.8,287l2.73,1.6-1.7,3.88,2.12,1.12,3-6.88,3.86,1.87L388.34,292l1.42,1.82,4.74-7.17,1.94,2.46-5.61,12.83h1.41l3.14-3.66,1.83,2.41-7,11.44,2.26,2.79s-14.56,25.52-14.8,23.91S346.73,313.81,346.73,313.81Z" style="fill:#407BFF"></path><path d="M346.73,313.81l4.88-29,4.1-.41-.95,5.6,3.58.57,3.79-14.66,4.42.92-1.32,6.26,3,1.33,0,3.63,2.6.94,3.77-8.61,2.7,1.18,1.77-4,4.05,1.77L379.8,287l2.73,1.6-1.7,3.88,2.12,1.12,3-6.88,3.86,1.87L388.34,292l1.42,1.82,4.74-7.17,1.94,2.46-5.61,12.83h1.41l3.14-3.66,1.83,2.41-7,11.44,2.26,2.79s-14.56,25.52-14.8,23.91S346.73,313.81,346.73,313.81Z" style="fill:#fff;isolation:isolate"></path><path d="M349,308.08,352.89,291l2.8.73s-1.81,9.65-1.7,9.41,2.87-8.9,2.87-8.9l2.8.52-.46,5.42,1.89-7.52-.69-.3,1.65-7.21,2.47.57-1.74,10.4-1,.38-3,10.67,3.4-9.39,2.69-.64,2.28,1-1.75-2,1.62-4.62,3.49,1.42-3.48,10-2.58-.33-3.8,11,4.18-9.35,3.38.3,1.32.68-3.56,10.3,4.76-10.88-2.17-2.27,3.67-9.54,2.54.4-1.34,4.24,4.2-8.62,2.69,1.59-9.78,24,6.5-13.47,2.48,1-1.92,4.38-1.26.15-3.73,8.07,4-7.32,2.63-.26,2.71,1.4-2.1-3,1.43-4.19-2.36-1,2.33-4.42,3.2,1.2-2.9,7.79,5.49-10.28,1.9,2.13-4.77,10.89,1.93-3.29,1.93,1.36-4.19,7.5-3.2-1-1.49,3.68,1.73-3.07,3.5,1.22,1.24,1.05-7.58,14.81-20-.44Z" style="fill:#407BFF"></path><path d="M370.81,302.73l-2.17-2.27,3.67-9.54,2.54.4-1.34,4.24,4.2-8.62,2.69,1.59-9.78,24,6.5-13.47,2.48,1-1.92,4.38-1.26.15-3.73,8.07,4-7.32,2.63-.26,2.71,1.4-2.1-3,1.43-4.19-2.36-1,2.33-4.42,3.2,1.2-2.9,7.79,5.49-10.28,1.9,2.13-4.77,10.89,1.93-3.29,1.93,1.36-4.19,7.5-3.2-1-1.49,3.68,1.73-3.07,3.5,1.22,1.24,1.05-7.58,14.81-20-.44L349,308.08,352.89,291l2.8.73s-1.81,9.65-1.7,9.41,2.87-8.9,2.87-8.9l2.8.52-.46,5.42,1.89-7.52-.69-.3,1.65-7.21,2.47.57-1.74,10.4-1,.38-3,10.67,3.4-9.39,2.69-.64,2.28,1-1.75-2,1.62-4.62,3.49,1.42-3.48,10-2.58-.33-3.8,11,4.18-9.35,3.38.3,1.32.68" style="fill:#fff;opacity:0.9;isolation:isolate"></path><path d="M364.91,320.46c-6.43-3-7-13.83-7-14.25l.09,0S358.41,317.34,364.91,320.46Z" style="fill:#263238"></path><path d="M390.42,322.53l-12.19-7.42h0Z" style="fill:#263238"></path><path d="M390.42,322.53l-21.73,36.32A66.77,66.77,0,0,1,335,345l-.07-.06,11.83-41.76,11.13,3.07c0,.42.6,11.23,7,14.25a6,6,0,0,0,.58.25l.44.15c6.78,2.22,12.07-5.41,12.3-5.75Z" style="fill:#407BFF"></path><path d="M346.67,303.11l11.22,3.09h0l-11.13-3.07L334.92,344.9l.07.06-.15-.09Z" style="fill:#407BFF"></path><path d="M365.93,320.86a7.13,7.13,0,0,0,1,.24A7.13,7.13,0,0,1,365.93,320.86Z" style="fill:#407BFF"></path><path d="M367.88,321.22h0Z" style="fill:#407BFF"></path><path d="M367.88,321.22c5.92.35,10.28-6.16,10.28-6.16l.07.05C378,315.42,373.69,321.63,367.88,321.22Z" style="fill:#407BFF"></path><path d="M367.7,321.21c-.26,0-.52-.06-.78-.11A7.31,7.31,0,0,0,367.7,321.21Z" style="fill:#407BFF"></path><path d="M390.43,322.53l-5.87-1.47-20.37,33.75a82.91,82.91,0,0,1-29.35-9.95l11.84-41.75,11.21,3.09s.48,11.83,7.59,14.51,12.68-5.65,12.68-5.65Z" style="fill:#fff;opacity:0.4;isolation:isolate"></path><path d="M358.1,338.76c-3.22-1.23-5-4.58-3.92-7.54s4.69-4.46,8-3.18,5,4.75,3.84,7.73S361.32,340,358.1,338.76Z" style="fill:#407BFF"></path><path d="M358.1,338.76c-3.22-1.23-5-4.58-3.92-7.54s4.69-4.46,8-3.18,5,4.75,3.84,7.73S361.32,340,358.1,338.76Z" style="fill:#fff;opacity:0.8"></path><path d="M335.43,353.24c6.29-2.71-5.42-3.05-13.73-3-4.22,0-4.36,6.39-.15,6.52C324.64,356.88,329.07,356,335.43,353.24Z" style="fill:#fff"></path><path d="M322,357.79h-.47a4.09,4.09,0,0,1-4.06-4.27,4.16,4.16,0,0,1,4.23-4.25c16-.15,16.29,1.36,16.5,2.35.29,1.4-1.57,2.2-2.36,2.54h0C330.23,356.57,325.58,357.79,322,357.79Zm1.6-6.54H321.7a2.17,2.17,0,0,0-2.24,2.28,2.08,2.08,0,0,0,2.12,2.24c3.35.1,7.88-1.06,13.46-3.46h0c.26-.12.48-.22.64-.31C334.52,351.7,331.47,351.25,323.59,351.25Z" style="fill:#407BFF"></path><path d="M273.29,358.54a14.7,14.7,0,0,0-3.18,1.57c-.92.74-.73,6.28.58,7.34s15.43,3.45,22.77,2.88,19.38,0,27.29.09,23-1.2,23.89-2.87,1.08-5.69,0-6.89-6.88-4.49-11.72-3.77S273.29,358.54,273.29,358.54Z" style="fill:#407BFF"></path><g style="opacity:0.30000000000000004;isolation:isolate"><path d="M273.29,358.54a14.7,14.7,0,0,0-3.18,1.57c-.92.74-.73,6.28.58,7.34s15.43,3.45,22.77,2.88,19.38,0,27.29.09,23-1.2,23.89-2.87,1.08-5.69,0-6.89-6.88-4.49-11.72-3.77S273.29,358.54,273.29,358.54Z" style="fill:#fff"></path></g><path d="M269.74,359.28s19.82,2.61,20.24,2.61,54.46-2.41,54.46-2.41h0a3.25,3.25,0,0,1-2.8,2.71l-13.78,1.69c-2.72.34-5.45.54-8.19.62l-21.76.61a86.87,86.87,0,0,1-15.78-1l-8.62-1.34a4.57,4.57,0,0,1-3.77-3.5Z" style="opacity:0.2"></path><path d="M272.79,351.15a14.48,14.48,0,0,0-3.18,1.57c-.92.74-.73,6.29.58,7.34s15.43,3.45,22.77,2.88,19.38,0,27.29.09,23-1.19,23.89-2.87,1.08-5.69,0-6.89-6.88-4.49-11.72-3.77S272.79,351.15,272.79,351.15Z" style="fill:#263238"></path><g style="opacity:0.1"><path d="M272.79,351.15a14.48,14.48,0,0,0-3.18,1.57c-.92.74-.73,6.29.58,7.34s15.43,3.45,22.77,2.88,19.38,0,27.29.09,23-1.19,23.89-2.87,1.08-5.69,0-6.89-6.88-4.49-11.72-3.77S272.79,351.15,272.79,351.15Z"></path></g><path d="M272.79,351.15a14.48,14.48,0,0,0-3.18,1.57c-.92.74-.73,6.29.58,7.34s15.43,3.45,22.77,2.88,19.38,0,27.29.09,23-1.19,23.89-2.87,1.08-5.69,0-6.89-6.88-4.49-11.72-3.77S272.79,351.15,272.79,351.15Z" style="fill:#407BFF"></path><g style="opacity:0.2"><path d="M272.79,351.15a14.48,14.48,0,0,0-3.18,1.57c-.92.74-.73,6.29.58,7.34s15.43,3.45,22.77,2.88,19.38,0,27.29.09,23-1.19,23.89-2.87,1.08-5.69,0-6.89-6.88-4.49-11.72-3.77S272.79,351.15,272.79,351.15Z"></path></g><path d="M273,348.57s-4.07-.13-6.79,2.06a13.76,13.76,0,0,0-3.61,4l19.12,4.66s4.18-5.66,9.83-6.86Z" style="fill:#407BFF"></path><path d="M273,348.57s-4.07-.13-6.79,2.06a13.76,13.76,0,0,0-3.61,4l19.12,4.66s4.18-5.66,9.83-6.86Z" style="fill:#fff;opacity:0.7000000000000001;isolation:isolate"></path><path d="M288,350.25c5.87,3.52-2.48,6-10.71,4.83-4.18-.6-3.47-6.92.72-6.49C281.1,348.91,282.07,346.69,288,350.25Z" style="fill:#407BFF"></path><path d="M281.47,356.37a31.15,31.15,0,0,1-4.32-.3,4.17,4.17,0,0,1-3.62-4.78,4.09,4.09,0,0,1,4.59-3.69,7.21,7.21,0,0,0,2.14-.17c1.78-.34,3.81-.71,8.27,2h0c2.51,1.51,2.65,2.93,2.32,3.85C290.1,355.37,286,356.37,281.47,356.37Zm-3.85-6.8a2.07,2.07,0,0,0-2.1,2,2.17,2.17,0,0,0,1.92,2.56c6.15.87,11.15-.46,11.53-1.52.07-.18-.28-.74-1.47-1.46h0c-3.81-2.29-5.3-2-6.88-1.72a8.66,8.66,0,0,1-2.7.2Z" style="fill:#407BFF"></path><path d="M288,350.25c5.87,3.52-2.48,6-10.71,4.83-4.18-.6-3.47-6.92.72-6.49C281.1,348.91,282.07,346.69,288,350.25Z" style="opacity:0.2"></path><path d="M292.9,351.13v8.15l14.73-2.49,11,2.09v-8.25S305.69,346.8,292.9,351.13Z" style="fill:#407BFF"></path><path d="M292.9,351.13v8.15h0a61,61,0,0,1,25.17-.51l.57.11v-8.25S305.69,346.8,292.9,351.13Z" style="fill:#fff;opacity:0.7000000000000001;isolation:isolate"></path><path d="M309.63,351.31c4.77,4.91-3.95,5.17-11.6,1.92-3.88-1.64-1.58-7.57,2.36-6.08C303.28,348.24,304.8,346.35,309.63,351.31Z" style="fill:#407BFF"></path><path d="M307.34,356.38a26.81,26.81,0,0,1-9.7-2.23,4.17,4.17,0,0,1-2.28-5.55,4.09,4.09,0,0,1,5.38-2.39,7.25,7.25,0,0,0,2.11.39c1.81.13,3.87.29,7.49,4h0c2.05,2.1,1.82,3.51,1.27,4.31C310.91,356,309.33,356.38,307.34,356.38Zm-8.19-8.47a2.12,2.12,0,0,0-1.93,1.44,2.17,2.17,0,0,0,1.2,3c5.72,2.42,10.9,2.42,11.54,1.49.11-.16-.08-.79-1-1.79-3.1-3.18-4.61-3.3-6.21-3.42a8.76,8.76,0,0,1-2.66-.51A2.53,2.53,0,0,0,299.15,347.91Z" style="fill:#407BFF"></path><path d="M309.63,351.31c4.77,4.91-3.95,5.17-11.6,1.92-3.88-1.64-1.58-7.57,2.36-6.08C303.28,348.24,304.8,346.35,309.63,351.31Z" style="opacity:0.2"></path><path d="M320.58,352c-4.77,4.91,3.94,5.16,11.6,1.92,3.88-1.65,1.58-7.58-2.36-6.09C326.92,348.88,325.41,347,320.58,352Z" style="fill:#407BFF"></path><path d="M322.87,357c-2,0-3.57-.44-4.27-1.45-.55-.81-.78-2.21,1.27-4.32h0c3.62-3.73,5.67-3.88,7.49-4a6.8,6.8,0,0,0,2.1-.38,4.08,4.08,0,0,1,5.38,2.39,4.17,4.17,0,0,1-2.27,5.55A27,27,0,0,1,322.87,357Zm-1.57-4.37c-1,1-1.16,1.63-1.05,1.79.64.92,5.82.93,11.54-1.49a2.18,2.18,0,0,0,1.2-3,2.09,2.09,0,0,0-2.82-1.26,9.08,9.08,0,0,1-2.66.51c-1.6.12-3.11.23-6.21,3.42Z" style="fill:#407BFF"></path><path d="M320.58,352c-4.77,4.91,3.94,5.16,11.6,1.92,3.88-1.65,1.58-7.58-2.36-6.09C326.92,348.88,325.41,347,320.58,352Z" style="opacity:0.2"></path><path d="M338.25,346.43s4.07-.13,6.79,2.06a13.76,13.76,0,0,1,3.61,4l-19.12,4.66s-4.18-5.66-9.83-6.86Z" style="fill:#407BFF"></path><path d="M338.25,346.43s4.07-.13,6.79,2.06a13.76,13.76,0,0,1,3.61,4l-19.12,4.66s-4.18-5.66-9.83-6.86Z" style="fill:#fff;opacity:0.6000000000000001;isolation:isolate"></path><path d="M344.06,346.91l-75,1.66s-8.58,7.51,39.22,6.16C353.79,353.44,344.06,346.91,344.06,346.91Z" style="opacity:0.1"></path><path d="M268.78,343.67a4.51,4.51,0,0,0-.58,4.75c1.18,2.45,4.3,3.26,7,3.22s5.52-.64,8.13.13c2.06.6,3.84,2,5.95,2.42,5,.94,9.45-4,14.5-3.71,4.23.26,7.78,4.16,12,3.71s7.27-5,11.39-4.49c2.93.34,5.06,3.15,7.95,3.71,3.06.6,6-1.45,8.19-3.65a7,7,0,0,0,2-2.92c.81-2.93-2.08-5.65-5-6.57a27.24,27.24,0,0,0-8.36-.81q-16.47.15-32.93.92-8.3.39-16.58.93C279,341.54,271.27,340.7,268.78,343.67Z" style="fill:#407BFF"></path><path d="M268.78,343.67a4.51,4.51,0,0,0-.58,4.75c1.18,2.45,4.3,3.26,7,3.22s5.52-.64,8.13.13c2.06.6,3.84,2,5.95,2.42,5,.94,9.45-4,14.5-3.71,4.23.26,7.78,4.16,12,3.71s7.27-5,11.39-4.49c2.93.34,5.06,3.15,7.95,3.71,3.06.6,6-1.45,8.19-3.65a7,7,0,0,0,2-2.92c.81-2.93-2.08-5.65-5-6.57a27.24,27.24,0,0,0-8.36-.81q-16.47.15-32.93.92-8.3.39-16.58.93C279,341.54,271.27,340.7,268.78,343.67Z" style="fill:#fff;opacity:0.1"></path><path d="M269.74,343.77c.3,1.45.67,3,1.83,3.94a4.35,4.35,0,0,0,4.76,0,12.94,12.94,0,0,0,3.54-3.57A32.51,32.51,0,0,1,269.74,343.77Z" style="opacity:0.1"></path><path d="M296.91,344.86l.09.15a3.8,3.8,0,0,1-.51,4.28l-.19.25a15.27,15.27,0,0,1-1.34,2,2.91,2.91,0,0,1-2.81.59,5.85,5.85,0,0,1-3.74-4c-.15-.55-.36-1.27-.93-1.29a.82.82,0,0,0-.74.77,2.6,2.6,0,0,0,.06,1.24,5.59,5.59,0,0,1-2.61-6.21c3.52.26,7,.39,10.55.82A2.91,2.91,0,0,1,296.91,344.86Z" style="opacity:0.1"></path><path d="M319.77,342.94a18.94,18.94,0,0,1,4,2.44,2.24,2.24,0,0,0-1.73,1c-.42.55-.69,1.19-1.09,1.75-1.17,1.66-3.92,3.07-5.66,2a8.51,8.51,0,0,0-2.42-1,2.27,2.27,0,0,0-1.74.09c-.51.31-.71,1.46-.23,1.82a31.2,31.2,0,0,1-6.93-5c-1-.92-1.92-2.06-1.86-3.39C308.07,342.23,314.27,340.64,319.77,342.94Z" style="opacity:0.1"></path><path d="M324.19,342.34l5.8,6c1.35,1.39,3,2.91,4.95,2.6a3.73,3.73,0,0,0,2.43-1.67,6.66,6.66,0,0,0,1-2.84,3.71,3.71,0,0,1,3.73,0c-.18-.46.4-1,.83-1.27s1-.46,1.11-.94a1.07,1.07,0,0,0-.53-1.14,3.19,3.19,0,0,0-1.3-.36A94.24,94.24,0,0,1,324.19,342.34Z" style="opacity:0.1"></path><path d="M343.42,342.29l-73.94.94s-9,5.53,38.78,4.18C353.79,346.13,343.42,342.29,343.42,342.29Z" style="opacity:0.1"></path><path d="M342.92,344c1-.49.41-2.19.41-3.32,0-12.89-16.61-23.32-37.09-23.32s-37.11,10.43-37.11,23.32c0,1.13-.39,2.52.43,3.32,2.78,2.64,19.41-.34,36.72-.55C322.31,343.24,338.88,346,342.92,344Z" style="fill:#407BFF"></path><path d="M342.92,344c1-.49.41-2.19.41-3.32,0-12.89-16.61-23.32-37.09-23.32s-37.11,10.43-37.11,23.32c0,1.13-.39,2.52.43,3.32,2.78,2.64,19.41-.34,36.72-.55C322.31,343.24,338.88,346,342.92,344Z" style="fill:#fff;opacity:0.30000000000000004;isolation:isolate"></path><path d="M307.65,322.32s1.53,1.84,0,1.84S307.65,322.32,307.65,322.32Z" style="fill:#fff"></path><path d="M316.34,322.41s3.1-.05,2.88,1.5C319.05,325.13,316.34,322.41,316.34,322.41Z" style="fill:#fff"></path><path d="M297.23,322s-1.28,1.62-2.24,1.21S297.23,322,297.23,322Z" style="fill:#fff"></path><path d="M300.29,325.06s.72,1.83-.79,1.37C298.51,326.12,300.29,325.06,300.29,325.06Z" style="fill:#fff"></path><path d="M314.3,325.1s2.55.73,1.15,1.45C314.53,327,314.3,325.1,314.3,325.1Z" style="fill:#fff"></path><path d="M304.15,321.55c-.06.35-.45.73-.77.58-.81-.39-.2-1.08,0-1.16a.6.6,0,0,1,.62.08C304.18,321.2,304.33,321.42,304.15,321.55Z" style="fill:#fff"></path><path d="M299.78,320.76c-.12.34-.6.69-.86.44-.81-.74,0-1.09.2-1.14a.62.62,0,0,1,.6.19C299.86,320.42,300,320.67,299.78,320.76Z" style="fill:#fff"></path><path d="M320.25,320.76c-.11.34-.59.69-.85.44-.81-.74,0-1.09.2-1.14a.62.62,0,0,1,.6.19C320.34,320.42,320.46,320.67,320.25,320.76Z" style="fill:#fff"></path><path d="M311.38,322a.72.72,0,0,0,.48,0,.43.43,0,0,0,.25-.38.6.6,0,0,0-.38-.45C311.38,321,310.89,321.9,311.38,322Z" style="fill:#fff"></path><path d="M295.12,319.43a.91.91,0,0,0-.54.23.44.44,0,0,0-.12.52,1.33,1.33,0,0,0,.92-.09C295.65,319.93,295.68,319.41,295.12,319.43Z" style="fill:#fff"></path><path d="M305.6,318.09a.68.68,0,0,0-.73.57.32.32,0,0,0,0,.17.31.31,0,0,0,.21.11,1.26,1.26,0,0,0,.58,0,.5.5,0,0,0,.38-.4.35.35,0,0,0-.33-.4Z" style="fill:#fff"></path><path d="M300.76,318.46a.52.52,0,0,0-.55.44.25.25,0,0,0,0,.12.23.23,0,0,0,.16.08.82.82,0,0,0,.44,0,.4.4,0,0,0,.29-.31.26.26,0,0,0-.25-.3Z" style="fill:#fff"></path><path d="M310.83,318.46a.27.27,0,0,0-.24.18.75.75,0,0,0,0,.3.33.33,0,0,0,0,.2.3.3,0,0,0,.23.08,1.29,1.29,0,0,0,.48,0,.47.47,0,0,0,.33-.31.4.4,0,0,0-.2-.43.67.67,0,0,0-.48-.08Z" style="fill:#fff"></path><path d="M315.19,320.29a.72.72,0,0,0,.48,0,.42.42,0,0,0,.25-.38.61.61,0,0,0-.38-.45C315.19,319.25,314.7,320.18,315.19,320.29Z" style="fill:#fff"></path><path d="M382.26,362l-10-1.47.81-4.7L383.25,357s2.66-5.71,5.41-2.74-2,4.29-2.39,5.8c-.48,1.72,3.62,6.37-.44,7.14C381.31,368,382.26,362,382.26,362Z" style="fill:#fff"></path><path d="M325.76,361.53c-2.62-4-5.23-10.7,6.06-18.35s20.77-6.33,25.48-1.51,8.81,10.24,13,10.2,8.32,1.34,5.76,4.42,2.49,8.78-2.5,8.23-3.36-5.14-9.39-.72S337.79,380.13,325.76,361.53Z" style="fill:#407BFF"></path><path d="M325.76,361.53c-2.62-4-5.23-10.7,6.06-18.35s20.77-6.33,25.48-1.51,8.81,10.24,13,10.2,8.32,1.34,5.76,4.42,2.49,8.78-2.5,8.23-3.36-5.14-9.39-.72S337.79,380.13,325.76,361.53Z" style="fill:#fff;opacity:0.7000000000000001;isolation:isolate"></path><path d="M337.88,344.12c1.54-1.92,3.82-4.29,9.19-3.58s9.14,5.16,7.74,6.33-7.07-2.06-10.51-.9S336.14,346.29,337.88,344.12Z" style="fill:#fff;opacity:0.5"></path></g><g id="freepik--Label--inject-194"><path d="M377.94,204l2.22-1.43a5,5,0,0,1,7.15,1.92l1.21,2.34a5,5,0,0,0,4.68,2.7l2.64-.12a5,5,0,0,1,5.23,5.23l-.12,2.64a5,5,0,0,0,2.7,4.68l2.35,1.22a5,5,0,0,1,1.91,7.14l-1.42,2.23a5,5,0,0,0,0,5.4l1.42,2.22a5,5,0,0,1-1.91,7.15l-2.35,1.21a5,5,0,0,0-2.7,4.68l.12,2.64a5,5,0,0,1-5.23,5.23L393.2,261a5,5,0,0,0-4.68,2.7L387.31,266a5,5,0,0,1-7.15,1.92l-2.22-1.43a5,5,0,0,0-5.41,0l-2.22,1.43a5,5,0,0,1-7.15-1.92L362,263.65a5,5,0,0,0-4.68-2.7l-2.64.12a5,5,0,0,1-5.23-5.23l.12-2.64a5,5,0,0,0-2.7-4.68l-2.35-1.21a5,5,0,0,1-1.91-7.15l1.42-2.22a5,5,0,0,0,0-5.4l-1.42-2.23a5,5,0,0,1,1.91-7.14l2.35-1.22a5,5,0,0,0,2.7-4.68l-.12-2.64a5,5,0,0,1,5.23-5.23l2.64.12a5,5,0,0,0,4.68-2.7l1.21-2.34a5,5,0,0,1,7.15-1.92l2.22,1.43A5,5,0,0,0,377.94,204Z" style="fill:#263238"></path></g><g id="freepik--Character--inject-194"><path d="M163.42,320.51c-.1-.65-.21-1.33-.3-2-4.07-30.46.8-75.45.8-75.45l23.24-4.91s-1.06,33.1-6.58,71.3c-.74,5.1,0,9.9.26,14l-15.67,2.65Z" style="fill:#ffc2bc"></path><path d="M172.47,315c-6,1.47-9.23,8.05-6.09,13.17a6.58,6.58,0,0,0,.42.61c17.15,22.57,46.67,60,46.67,60l6.06-3.89s-7.75-10.31-22.66-43.72C189.58,324.82,181,319.21,176.76,314h0Z" style="fill:#ffc2bc;isolation:isolate"></path><path d="M146.26,228S134.32,295.51,136,323.28c1.75,29.26,9.44,79.47,9.44,79.47l7.48-.3s5.49-57.43.25-78.34l23.38-94.32Z" style="fill:#ffc2bc"></path><path d="M183.76,300.59c-4.38.79-10.46,2.73-21.9,3.54l-.69,0c-.48,0-1,.06-1.5.07-3.07.09-23.89.7-23.77-3a503,503,0,0,1,10.72-86.88L160,213.11l18.31-.06s12.12,5.81,11.74,32.28S183.76,300.59,183.76,300.59Z" style="fill:#407BFF"></path><path d="M186.19,221.15c-1.28-2.36-5.15-7-8.86-7.58-4.92-.83-6-1-24.9,2-8.93,1.43-9.53,8.46-9,12.09A2.67,2.67,0,0,0,144,229l.42.52c.92.27,41.18-7.08,41.6-6.87A1.46,1.46,0,0,0,186.19,221.15Z" style="fill:#407BFF"></path><path d="M186.19,221.15c-1.28-2.36-5.15-7-8.86-7.58-4.92-.83-6-1-24.9,2-8.93,1.43-9.53,8.46-9,12.09A2.67,2.67,0,0,0,144,229l.42.52c.92.27,41.18-7.08,41.6-6.87A1.46,1.46,0,0,0,186.19,221.15Z" style="fill:#fff;opacity:0.2"></path><g id="freepik--group--inject-194"><path d="M234.49,180.7a16.75,16.75,0,0,1,6.88-3.6,14.28,14.28,0,0,1,5.61.09,2.34,2.34,0,0,1,1.43.87,7.44,7.44,0,0,1,1.53,3.66,1.4,1.4,0,0,1-1.18,1.52c-1.65.28-3.47.67-5,.87-2.89,2-7.44,2.1-10.14-.15C233.91,182.94,234.18,181.71,234.49,180.7Z" style="fill:#ffc2bc"></path><path d="M236.17,179.87l-1,4.55s-31.89-.88-35.93-2.44c-2.77-1.08-6-2.35-9.26-3.71-3.78-1.55-7.69-3.22-11.2-4.83-6.34-2.93-11.36-5.69-11.92-7.29-1.68-4.86,4.18-8.67,9.2-6.35,6.53,3,17.29,9.76,28.37,14.26C208.2,175.6,236.17,179.87,236.17,179.87Z" style="fill:#ffc2bc"></path><path d="M190,178.27c-3.78-1.55-7.69-3.22-11.2-4.83l-1.37-7.36A85.28,85.28,0,0,1,190,178.27Z" style="opacity:0.2"></path><path d="M182.19,161.13s-8.34-5.83-11.86-2.13-3,13.38,10.27,17.72l7.34-12.82Z" style="fill:#407BFF"></path><path d="M182.19,161.13s-8.34-5.83-11.86-2.13-3,13.38,10.27,17.72l7.34-12.82Z" style="fill:#fff;opacity:0.2"></path><path d="M174.6,157.75c.27.47,7.94,10.43,9.06,18.22a122.42,122.42,0,0,1,.23,32.08v0l1.28,2.88a8.83,8.83,0,0,1-.12,7.42l-.53,1.12a.05.05,0,0,1,0,0l-40.61,5.72h0l-.24-.13a8.44,8.44,0,0,1-4.11-9.9h0c2.75-9.25,3.14-25.05-6.55-51.7a.06.06,0,0,1,0-.07,106.93,106.93,0,0,1,14.95-3.88,116,116,0,0,1,16.31-2c5.17-.07,5.2-.33,10.33.13Z" style="fill:#407BFF"></path><path d="M142.44,122.8c-3,2.55-5.77,4.79-6.64,8.6a14.55,14.55,0,0,0,.58,9.36c1.54,3.27,4.68,5.46,7.79,7.31,3.81,2.26,7.87,4.29,12.26,4.93s9.17-.26,12.44-3.26c1.61-1.48,2.75-4.66,4.33-6.18s7.29-4,7.31-9.68c0-19.44-22.21-16.94-27.22-16.33C149.15,118.06,145.84,119.88,142.44,122.8Z" style="fill:#263238"></path><path d="M147.31,141c1.67,5.13,3.86,14.63.6,18.58l2.69,2.6a8.11,8.11,0,0,0,13.64-4.57h0c-6-.71-5-6.74-6.28-12.49Z" style="fill:#ffc2bc"></path><path d="M147.31,141c1.34,4.12,3,11.07,1.9,15.7,3-.91,7.4-3.76,7.82-6.52a35.52,35.52,0,0,0-.36-5.55Z" style="opacity:0.2;isolation:isolate"></path><path d="M166.61,132.37c-.42,8.84-.4,12.59-4.8,17.19-6.62,6.91-17.39,4.46-19.62-4.32-2-7.92-1-21,7.61-24.69a12.09,12.09,0,0,1,16.81,11.82Z" style="fill:#ffc2bc"></path><path d="M168.52,137.3c-14.21,3.8-12.23-11.31-26.24-13.12,6.47-6.33,16.54-5.47,20.93-3.72S168.52,137.3,168.52,137.3Z" style="fill:#263238"></path><path d="M169.91,140.78a6.51,6.51,0,0,1-3.87,3.1c-2.18.61-3.27-1.34-2.67-3.4.53-1.86,2.34-4.38,4.51-4.14a2.91,2.91,0,0,1,2.45,3.32A3,3,0,0,1,169.91,140.78Z" style="fill:#ffc2bc"></path><path d="M154.15,135.14c0,.77-.4,1.39-.89,1.41s-.93-.61-.94-1.38.4-1.39.89-1.41S154.14,134.37,154.15,135.14Z" style="fill:#263238"></path><path d="M145.41,135.26c0,.78-.4,1.4-.9,1.42s-.93-.61-.93-1.4.38-1.38.89-1.41S145.43,134.47,145.41,135.26Z" style="fill:#263238"></path><path d="M144.7,133.91l-1.85-.46S143.79,134.8,144.7,133.91Z" style="fill:#263238"></path><path d="M147.74,136.56a21.2,21.2,0,0,1-2.69,5,3.29,3.29,0,0,0,2.76.47Z" style="fill:#ec837e"></path><path d="M150.61,144.56a7.64,7.64,0,0,1-1.35.45.2.2,0,0,1-.23-.14h0a.2.2,0,0,1,.15-.23,6.12,6.12,0,0,0,4.34-3.5.2.2,0,0,1,.21-.15.18.18,0,0,1,.16.19,0,0,0,0,1,0,0A6.2,6.2,0,0,1,150.61,144.56Z" style="fill:#263238"></path><path d="M154.65,130.16a.32.32,0,0,1-.29-.12,3.18,3.18,0,0,0-2.6-1.27.35.35,0,0,1-.36-.3.3.3,0,0,1,.22-.38h0a3.8,3.8,0,0,1,3.15,1.5.41.41,0,0,1,0,.49A.39.39,0,0,1,154.65,130.16Z" style="fill:#263238"></path><path d="M141.82,130.06a.36.36,0,0,1-.36-.05.37.37,0,0,1-.06-.53h0a4.41,4.41,0,0,1,3.69-1.72.36.36,0,0,1,.34.39v0a.39.39,0,0,1-.42.33h0a3.67,3.67,0,0,0-3,1.44A.31.31,0,0,1,141.82,130.06Z" style="fill:#263238"></path><path d="M153.43,133.79l-1.85-.46S152.54,134.72,153.43,133.79Z" style="fill:#263238"></path></g><path d="M188,195.49l10.75-1.83-1.44,9.22s-6.35-1-9.34-2.33Z" style="fill:#ffc2bc"></path><path d="M204.28,198.92l-.09.34a3.68,3.68,0,0,1-2.7,2.63l-4.21,1,1.44-9.22,2.95.77A3.67,3.67,0,0,1,204.28,198.92Z" style="fill:#ffc2bc"></path><path d="M187.73,200.71s-13.87,2.17-34-1.84c0,0-12.74-8.83-19.17-17.21-9.54-12.44-3.82-23.62,3.22-15.58,5.23,6,21.91,22.1,21.91,22.1,10.83,3.63,30.05,7,30.05,7C193.59,200.73,187.73,200.71,187.73,200.71Z" style="fill:#ffc2bc"></path><path d="M149.21,156.74l-3.14,3.19s9.16,8.29,9.33,7.76a31.6,31.6,0,0,1,2.51-3.38Z" style="fill:#407BFF"></path><path d="M161.1,156l4.22,1.5s-3.3,9.42-3.68,9a32.07,32.07,0,0,0-3.73-1.95Z" style="fill:#407BFF"></path><path d="M149.21,156.74l-3.14,3.19s9.16,8.29,9.33,7.76a31.6,31.6,0,0,1,2.51-3.38Z" style="fill:#fff;opacity:0.2"></path><path d="M161.1,156l4.22,1.5s-3.3,9.42-3.68,9a32.07,32.07,0,0,0-3.73-1.95Z" style="fill:#fff;opacity:0.2"></path><path d="M130.47,164.49c-4.22,3.37-5,8.69,3.12,19.34l15.45-8.3S138,158.46,130.47,164.49Z" style="fill:#407BFF"></path><path d="M130.47,164.49c-4.22,3.37-5,8.69,3.12,19.34l15.45-8.3S138,158.46,130.47,164.49Z" style="fill:#fff;opacity:0.2"></path><path d="M137.05,125.8s7.56-1.44,8.65-1.15a77.86,77.86,0,0,1,13.46,4.64c5.3,2.43,10.13,7.46,10.13,7.46v-3.32a28.46,28.46,0,0,0-14.6-9.47h0a24,24,0,0,0-15.31.91Z" style="fill:#407BFF"></path><path d="M137.05,125.8s7.56-1.44,8.65-1.15a77.86,77.86,0,0,1,13.46,4.64c5.3,2.43,10.13,7.46,10.13,7.46v-3.32a28.46,28.46,0,0,0-14.6-9.47h0a24,24,0,0,0-15.31.91Z" style="fill:#fff;opacity:0.2"></path><path d="M157.17,126.35a20.12,20.12,0,0,0-20.87-.11c.24-.12-3,2.15-4.19,3.22a1.82,1.82,0,0,0-.69,1.08c0,.43.43.9.82.69,4.47-2.4,10.45.2,15.52.11C151.29,131.27,154.13,128.16,157.17,126.35Z" style="fill:#407BFF"></path><path d="M185.1,222.46c5.06,18.64,1.32,45.9-16.82,52.53a46.1,46.1,0,0,1-10.68,3A15.56,15.56,0,0,1,147,275.69c-3.87-2.71-5.71-7.5-6.72-12.12a54.81,54.81,0,0,1,3.65-34.09Z" style="fill:#407BFF"></path><path d="M185.1,222.46c5.06,18.64,1.32,45.9-16.82,52.53a46.1,46.1,0,0,1-10.68,3A15.56,15.56,0,0,1,147,275.69c-3.87-2.71-5.71-7.5-6.72-12.12a54.81,54.81,0,0,1,3.65-34.09Z" style="fill:#fff;opacity:0.4"></path><path d="M141,405.77c-.85.82-1.9,1.51-2.57,1.4a1,1,0,0,1-.74-.74,1.17,1.17,0,0,1,.11-.88c.82-1.42,4.66-2.31,4.83-2.35a.26.26,0,0,1,.26.1.23.23,0,0,1,0,.26A14.87,14.87,0,0,1,141,405.77Zm-2.5-.32a1.13,1.13,0,0,0-.27.34.6.6,0,0,0-.08.54c.09.32.24.38.34.39.79.16,2.54-1.49,3.65-2.88A10.3,10.3,0,0,0,138.46,405.45Z" style="fill:#407BFF"></path><path d="M142.83,403.58a.11.11,0,0,1-.07.06c-1.21.41-4.44.46-5.1-.47-.18-.21-.28-.58.12-1.05a1.63,1.63,0,0,1,1.2-.58c1.63-.1,3.77,1.63,3.87,1.71a.24.24,0,0,1,.09.22A.2.2,0,0,1,142.83,403.58Zm-4.62-1.25-.1.08c-.27.31-.16.45-.13.5.45.52,2.76.68,4.15.39A6,6,0,0,0,139,402a1.23,1.23,0,0,0-.78.33Z" style="fill:#407BFF"></path><path d="M145.79,401.77l7.28-.19a.9.9,0,0,1,.85.68l2.36,8.95a1.42,1.42,0,0,1-.95,1.78,1.35,1.35,0,0,1-.29.05c-3.75,0-7.09-.16-11.75-.07-5.5.1-4.07.78-10.53,1-3.9.13-4.86-4.56-3.22-4.83,7.51-1.15,11.27-3.59,14-6.51A3.09,3.09,0,0,1,145.79,401.77Z" style="fill:#263238"></path><path d="M212.4,394.08c-.08,1.12-.39,2.28-.94,2.63a.89.89,0,0,1-1-.06A1.07,1.07,0,0,1,210,396c-.32-1.54,1.84-4.62,1.94-4.76a.25.25,0,0,1,.25-.09.21.21,0,0,1,.17.18A14.44,14.44,0,0,1,212.4,394.08Zm-2,1.36a1.39,1.39,0,0,0,0,.41.57.57,0,0,0,.28.44c.28.17.42.12.5.06.66-.39.85-2.68.76-4.38A10,10,0,0,0,210.41,395.44Z" style="fill:#407BFF"></path><path d="M212.33,391.33a.08.08,0,0,1,0,.08c-.6,1.07-2.86,3.16-3.93,2.92-.26,0-.57-.23-.58-.82a1.53,1.53,0,0,1,.48-1.18c1.1-1.11,3.72-1.25,3.85-1.26a.21.21,0,0,1,.19.11A.19.19,0,0,1,212.33,391.33Zm-4.08,2.05,0,.13c0,.38.17.41.23.43.65.09,2.4-1.28,3.19-2.37a5.74,5.74,0,0,0-3.05,1.08,1.12,1.12,0,0,0-.35.73Z" style="fill:#407BFF"></path><path d="M213.28,388.15l5.05-4.78a.85.85,0,0,1,1-.06l7.39,4.85a1.38,1.38,0,0,1,.47,1.88l-.18.22c-2.67,2.39-5.15,4.41-8.4,7.45-3.85,3.58-2.4,3.14-6.86,7.42-2.68,2.58-6.37-.14-5.37-1.38,4.61-5.6,5.73-9.74,5.82-13.59A3,3,0,0,1,213.28,388.15Z" style="fill:#263238"></path><path d="M176.9,175.53a.64.64,0,1,1-.83-.58A.73.73,0,0,1,176.9,175.53Z" style="fill:#fff"></path><path d="M170.36,176.27a22.24,22.24,0,0,1,.82,2.38l11.6-.56-1.09-2.38Z" style="fill:#fff"></path></g><g id="freepik--text-2--inject-194"><text transform="translate(349.94 239.22)" style="isolation:isolate;font-size:9px;fill:#407BFF;font-family:Montserrat-ExtraBoldItalic, Montserrat;font-weight:800;font-style:italic">1pc C<tspan x="24.58" y="0" style="letter-spacing:-0.002007378472222222em">r</tspan><tspan x="28.55" y="0">is</tspan><tspan x="36.28" y="0" style="letter-spacing:-0.014973958333333334em">p</tspan><tspan x="42.4" y="0">y </tspan><tspan x="5.85" y="10.8">Chi</tspan><tspan x="21.56" y="10.8" style="letter-spacing:-0.002007378472222222em">c</tspan><tspan x="26.96" y="10.8" style="letter-spacing:-0.023980034722222224em">k</tspan><tspan x="32.75" y="10.8">en</tspan></text><text transform="translate(355.26 226.22)" style="font-size:11.556190490722656px;fill:#407BFF;font-family:Montserrat-ExtraBoldItalic, Montserrat;font-weight:800;font-style:italic">FREE!</text></g><g id="freepik--text-1--inject-194"><text transform="translate(247.92 209.3)" style="font-size:20.57939910888672px;fill:#263238;font-family:Montserrat-ExtraBoldItalic, Montserrat;font-weight:800;font-style:italic"><tspan style="letter-spacing:-0.014995275049928022em">C<tspan x="14.88" y="0" style="letter-spacing:-0.000023726701028367124em">OMBO</tspan></tspan><tspan x="-0.06" y="24.7">OFFER!!</tspan></text></g></svg>